<?xml version="1.0" encoding="utf-8"?>
<!-- Generator: Adobe Illustrator 21.1.0, SVG Export Plug-In . SVG Version: 6.00 Build 0)  -->
<svg version="1.1" id="Capa_1" xmlns="http://www.w3.org/2000/svg" xmlns:xlink="http://www.w3.org/1999/xlink" x="0px" y="0px"
	 viewBox="0 0 99 99" style="enable-background:new 0 0 99 99;" xml:space="preserve">
<style type="text/css">
	.st0{fill:none;stroke:#3A3A3A;stroke-width:3;}
	.st1{fill:#3A3A3A;}
	.st2{fill:none;stroke:#3A3A3A;}
	.st3{fill:none;stroke:#3A3A3A;stroke-linecap:square;}
</style>
<title>Group 11</title>
<desc>Created with Sketch.</desc>
<g>
	<g id="calendario">
		<circle id="Oval-2-Copy" class="st0" cx="49.5" cy="49.5" r="47.5"/>
	</g>
	<g>
		<path class="st1" d="M84,51.5c0-0.3-0.2-0.6-0.5-0.7l-13.2-5.3l13.2-5.3c0.3-0.1,0.5-0.4,0.5-0.7s-0.2-0.6-0.5-0.7l-15.7-6.3
			c-0.2,0.5-0.4,1-0.7,1.5L81,39.4L49,52.2L17,39.4l32-12.9l5.9,2.4c0.1-0.5,0.3-1,0.5-1.5l-6.1-2.4c-0.2-0.1-0.3-0.1-0.5-0.1
			c0,0-0.1,0-0.1,0.1L14.5,38.6C14.2,38.7,14,39,14,39.4s0.2,0.6,0.5,0.7l13.2,5.3l-13.2,5.3c-0.3,0.1-0.5,0.4-0.5,0.7
			s0.2,0.6,0.5,0.7l13.2,5.3l-13.2,5.3C14.2,63,14,63.3,14,63.6s0.2,0.6,0.5,0.7l34.2,13.8c0.2,0.1,0.4,0.1,0.6,0l34.2-13.8
			c0.3-0.1,0.5-0.4,0.5-0.7s-0.2-0.6-0.5-0.7l-13.2-5.3l13.2-5.3C83.8,52.1,84,51.8,84,51.5z M81,63.6L49,76.5L17,63.6l12.9-5.2
			L48.7,66c0.2,0.1,0.4,0.1,0.6,0l18.8-7.6L81,63.6z M49,64.4L17,51.5l12.9-5.2l18.8,7.6c0.2,0.1,0.4,0.1,0.6,0l18.8-7.6L81,51.5
			L49,64.4z"/>
		<circle id="Oval-5" class="st2" cx="61.4" cy="30.3" r="6.3"/>
		<g id="Group-2" transform="translate(3.000000, 3.000000)">
			<path id="Line" class="st3" d="M58.4,24.6V30"/>
			<path id="Line-Copy-2" class="st3" d="M55.7,27.3h5.4"/>
		</g>
	</g>
</g>
</svg>
