<?xml version="1.0" encoding="utf-8"?>
<!-- Generator: Adobe Illustrator 21.1.0, SVG Export Plug-In . SVG Version: 6.00 Build 0)  -->
<svg version="1.1" id="Capa_1" xmlns="http://www.w3.org/2000/svg" xmlns:xlink="http://www.w3.org/1999/xlink" x="0px" y="0px"
	 viewBox="0 0 99 99" style="enable-background:new 0 0 99 99;" xml:space="preserve">
<style type="text/css">
	.st0{fill:none;stroke:#3A3A3A;stroke-width:3;}
	.st1{fill:#3A3A3A;}
</style>
<title>24/7</title>
<desc>Created with Sketch.</desc>
<g>
	<circle id="Oval-2-Copy-2" class="st0" cx="49.5" cy="49.5" r="47.5"/>
	<g id="dianoche" transform="translate(23.000000, 23.000000)">
		<g id="Page-1">
			<g id="Group">
				<g id="Shape">
					<path class="st1" d="M11.3,44.2c-5-3.8-8.2-9.3-9.1-15.6C1.4,22.4,3,16.2,6.7,11.1c3.8-5,9.3-8.3,15.5-9.1
						c0.4-0.1,0.8,0.1,1,0.5c0.2,0.3,0.2,0.8,0,1.1c-0.1,0.1-7.8,14.1-3.9,24.7c1.7,4.6,5.3,7.9,10.9,9.9c0.6,0.2,0.8,0.8,0.6,1.4
						c-0.2,0.6-0.8,0.9-1.4,0.6c-6.2-2.2-10.2-6-12.2-11.2C14,19.9,18.3,9,20.4,4.5c-4.8,1.2-9,3.9-12,7.9C5,17,3.6,22.6,4.4,28.3
						C5.1,34,8.1,39,12.6,42.4c4.5,3.4,10.1,4.9,15.8,4.1c5.6-0.8,10.6-3.7,14.1-8.3c3.4-4.6,4.9-10.2,4.1-15.9
						c-0.8-5.7-3.8-10.8-8.3-14.2c-0.5-0.4-0.6-1-0.2-1.5s1-0.6,1.5-0.2c5.1,3.8,8.3,9.4,9.2,15.6c0.9,6.2-0.7,12.4-4.5,17.5
						c-3.8,5-9.3,8.3-15.5,9.1c-1.1,0.2-2.2,0.2-3.3,0.2C20.3,48.9,15.4,47.3,11.3,44.2z"/>
					<path class="st1" d="M36.9,11.9V6.3c0-0.6,0.5-1.1,1.1-1.1h5.6c0.6,0,1.1,0.5,1.1,1.1s-0.5,1.1-1.1,1.1h-4.6v4.5
						c0,0.6-0.5,1.1-1.1,1.1C37.4,12.9,36.9,12.5,36.9,11.9z"/>
					<path class="st1" d="M24.4,55.8v-4.2c0-0.6,0.5-1.1,1.1-1.1c0.6,0,1.1,0.5,1.1,1.1v4.2c0,0.6-0.5,1.1-1.1,1.1
						C24.9,56.8,24.4,56.4,24.4,55.8z"/>
					<path class="st1" d="M39.6,52.2l-2.1-3.6c-0.3-0.5-0.1-1.2,0.4-1.5c0.5-0.3,1.2-0.1,1.5,0.4l2.1,3.6c0.3,0.5,0.1,1.2-0.4,1.5
						c-0.2,0.1-0.4,0.1-0.5,0.1C40.2,52.8,39.8,52.6,39.6,52.2z"/>
					<path class="st1" d="M51,41.6l-3.6-2.1c-0.5-0.3-0.7-1-0.4-1.5c0.3-0.5,1-0.7,1.5-0.4l3.6,2.1c0.5,0.3,0.7,1,0.4,1.5
						c-0.2,0.3-0.6,0.5-0.9,0.5C51.4,41.7,51.2,41.7,51,41.6z"/>
					<path class="st1" d="M51.5,26.5c-0.6,0-1.1-0.5-1.1-1.1c0-0.6,0.5-1.1,1.1-1.1h4.1c0.6,0,1.1,0.5,1.1,1.1
						c0,0.6-0.5,1.1-1.1,1.1H51.5z"/>
					<path class="st1" d="M47,12.9c-0.3-0.5-0.1-1.2,0.4-1.5L51,9.4c0.5-0.3,1.2-0.1,1.5,0.4c0.3,0.5,0.1,1.2-0.4,1.5l-3.6,2.1
						c-0.2,0.1-0.4,0.1-0.5,0.1C47.6,13.5,47.2,13.3,47,12.9z"/>
				</g>
			</g>
		</g>
	</g>
</g>
</svg>
